<?xml version="1.0" encoding="UTF-8" standalone="no"?>
<!DOCTYPE svg PUBLIC "-//W3C//DTD SVG 1.1//EN"
 "http://www.w3.org/Graphics/SVG/1.1/DTD/svg11.dtd">
<!-- Generated by graphviz version 2.43.0 (0)
 -->
<!-- Title: Tree Pages: 1 -->
<svg width="976pt" height="314pt"
 viewBox="0.00 0.00 976.00 314.00" xmlns="http://www.w3.org/2000/svg" xmlns:xlink="http://www.w3.org/1999/xlink">
<g id="graph0" class="graph" transform="scale(1 1) rotate(0) translate(4 310)">
<title>Tree</title>
<polygon fill="white" stroke="transparent" points="-4,4 -4,-310 972,-310 972,4 -4,4"/>
<!-- 0 -->
<g id="node1" class="node">
<title>0</title>
<path fill="#ab7cee" stroke="black" d="M595.5,-306C595.5,-306 380.5,-306 380.5,-306 374.5,-306 368.5,-300 368.5,-294 368.5,-294 368.5,-235 368.5,-235 368.5,-229 374.5,-223 380.5,-223 380.5,-223 595.5,-223 595.5,-223 601.5,-223 607.5,-229 607.5,-235 607.5,-235 607.5,-294 607.5,-294 607.5,-300 601.5,-306 595.5,-306"/>
<text text-anchor="middle" x="488" y="-290.8" font-family="Helvetica,sans-Serif" font-size="14.00">min_flowpktl &lt;= 80.5</text>
<text text-anchor="middle" x="488" y="-275.8" font-family="Helvetica,sans-Serif" font-size="14.00">gini = 0.382</text>
<text text-anchor="middle" x="488" y="-260.8" font-family="Helvetica,sans-Serif" font-size="14.00">samples = 379173</text>
<text text-anchor="middle" x="488" y="-245.8" font-family="Helvetica,sans-Serif" font-size="14.00">value = [2787, 93485, 282901]</text>
<text text-anchor="middle" x="488" y="-230.8" font-family="Helvetica,sans-Serif" font-size="14.00">class = GeneralMalware</text>
</g>
<!-- 1 -->
<g id="node2" class="node">
<title>1</title>
<path fill="#c2a0f2" stroke="black" d="M461.5,-187C461.5,-187 246.5,-187 246.5,-187 240.5,-187 234.5,-181 234.5,-175 234.5,-175 234.5,-116 234.5,-116 234.5,-110 240.5,-104 246.5,-104 246.5,-104 461.5,-104 461.5,-104 467.5,-104 473.5,-110 473.5,-116 473.5,-116 473.5,-175 473.5,-175 473.5,-181 467.5,-187 461.5,-187"/>
<text text-anchor="middle" x="354" y="-171.8" font-family="Helvetica,sans-Serif" font-size="14.00">flowPktsPerSecond &lt;= 21.34</text>
<text text-anchor="middle" x="354" y="-156.8" font-family="Helvetica,sans-Serif" font-size="14.00">gini = 0.458</text>
<text text-anchor="middle" x="354" y="-141.8" font-family="Helvetica,sans-Serif" font-size="14.00">samples = 265531</text>
<text text-anchor="middle" x="354" y="-126.8" font-family="Helvetica,sans-Serif" font-size="14.00">value = [2659, 88862, 174010]</text>
<text text-anchor="middle" x="354" y="-111.8" font-family="Helvetica,sans-Serif" font-size="14.00">class = GeneralMalware</text>
</g>
<!-- 0&#45;&gt;1 -->
<g id="edge1" class="edge">
<title>0&#45;&gt;1</title>
<path fill="none" stroke="black" d="M441.51,-222.91C430.7,-213.47 419.1,-203.34 408,-193.65"/>
<polygon fill="black" stroke="black" points="410.24,-190.96 400.41,-187.02 405.64,-196.23 410.24,-190.96"/>
<text text-anchor="middle" x="402.1" y="-208.26" font-family="Helvetica,sans-Serif" font-size="14.00">True</text>
</g>
<!-- 4 -->
<g id="node5" class="node">
<title>4</title>
<path fill="#8642e6" stroke="black" d="M740.5,-187C740.5,-187 503.5,-187 503.5,-187 497.5,-187 491.5,-181 491.5,-175 491.5,-175 491.5,-116 491.5,-116 491.5,-110 497.5,-104 503.5,-104 503.5,-104 740.5,-104 740.5,-104 746.5,-104 752.5,-110 752.5,-116 752.5,-116 752.5,-175 752.5,-175 752.5,-181 746.5,-187 740.5,-187"/>
<text text-anchor="middle" x="622" y="-171.8" font-family="Helvetica,sans-Serif" font-size="14.00">flow_fin &lt;= 1.5</text>
<text text-anchor="middle" x="622" y="-156.8" font-family="Helvetica,sans-Serif" font-size="14.00">gini = 0.08</text>
<text text-anchor="middle" x="622" y="-141.8" font-family="Helvetica,sans-Serif" font-size="14.00">samples = 113642</text>
<text text-anchor="middle" x="622" y="-126.8" font-family="Helvetica,sans-Serif" font-size="14.00">value = [128.0, 4623.0, 108891.0]</text>
<text text-anchor="middle" x="622" y="-111.8" font-family="Helvetica,sans-Serif" font-size="14.00">class = GeneralMalware</text>
</g>
<!-- 0&#45;&gt;4 -->
<g id="edge4" class="edge">
<title>0&#45;&gt;4</title>
<path fill="none" stroke="black" d="M534.49,-222.91C545.3,-213.47 556.9,-203.34 568,-193.65"/>
<polygon fill="black" stroke="black" points="570.36,-196.23 575.59,-187.02 565.76,-190.96 570.36,-196.23"/>
<text text-anchor="middle" x="573.9" y="-208.26" font-family="Helvetica,sans-Serif" font-size="14.00">False</text>
</g>
<!-- 2 -->
<g id="node3" class="node">
<title>2</title>
<path fill="#eadefb" stroke="black" d="M218,-68C218,-68 12,-68 12,-68 6,-68 0,-62 0,-56 0,-56 0,-12 0,-12 0,-6 6,0 12,0 12,0 218,0 218,0 224,0 230,-6 230,-12 230,-12 230,-56 230,-56 230,-62 224,-68 218,-68"/>
<text text-anchor="middle" x="115" y="-52.8" font-family="Helvetica,sans-Serif" font-size="14.00">gini = 0.51</text>
<text text-anchor="middle" x="115" y="-37.8" font-family="Helvetica,sans-Serif" font-size="14.00">samples = 135481</text>
<text text-anchor="middle" x="115" y="-22.8" font-family="Helvetica,sans-Serif" font-size="14.00">value = [1943, 60624, 72914]</text>
<text text-anchor="middle" x="115" y="-7.8" font-family="Helvetica,sans-Serif" font-size="14.00">class = GeneralMalware</text>
</g>
<!-- 1&#45;&gt;2 -->
<g id="edge2" class="edge">
<title>1&#45;&gt;2</title>
<path fill="none" stroke="black" d="M265.34,-103.88C242.79,-93.55 218.67,-82.5 196.5,-72.34"/>
<polygon fill="black" stroke="black" points="197.67,-69.03 187.12,-68.04 194.76,-75.39 197.67,-69.03"/>
</g>
<!-- 3 -->
<g id="node4" class="node">
<title>3</title>
<path fill="#a571ec" stroke="black" d="M466,-68C466,-68 260,-68 260,-68 254,-68 248,-62 248,-56 248,-56 248,-12 248,-12 248,-6 254,0 260,0 260,0 466,0 466,0 472,0 478,-6 478,-12 478,-12 478,-56 478,-56 478,-62 472,-68 466,-68"/>
<text text-anchor="middle" x="363" y="-52.8" font-family="Helvetica,sans-Serif" font-size="14.00">gini = 0.349</text>
<text text-anchor="middle" x="363" y="-37.8" font-family="Helvetica,sans-Serif" font-size="14.00">samples = 130050</text>
<text text-anchor="middle" x="363" y="-22.8" font-family="Helvetica,sans-Serif" font-size="14.00">value = [716, 28238, 101096]</text>
<text text-anchor="middle" x="363" y="-7.8" font-family="Helvetica,sans-Serif" font-size="14.00">class = GeneralMalware</text>
</g>
<!-- 1&#45;&gt;3 -->
<g id="edge3" class="edge">
<title>1&#45;&gt;3</title>
<path fill="none" stroke="black" d="M357.35,-103.73C358.03,-95.43 358.75,-86.67 359.44,-78.28"/>
<polygon fill="black" stroke="black" points="362.93,-78.55 360.26,-68.3 355.96,-77.98 362.93,-78.55"/>
</g>
<!-- 5 -->
<g id="node6" class="node">
<title>5</title>
<path fill="#823be5" stroke="black" d="M703.5,-68C703.5,-68 524.5,-68 524.5,-68 518.5,-68 512.5,-62 512.5,-56 512.5,-56 512.5,-12 512.5,-12 512.5,-6 518.5,0 524.5,0 524.5,0 703.5,0 703.5,0 709.5,0 715.5,-6 715.5,-12 715.5,-12 715.5,-56 715.5,-56 715.5,-62 709.5,-68 703.5,-68"/>
<text text-anchor="middle" x="614" y="-52.8" font-family="Helvetica,sans-Serif" font-size="14.00">gini = 0.017</text>
<text text-anchor="middle" x="614" y="-37.8" font-family="Helvetica,sans-Serif" font-size="14.00">samples = 104757</text>
<text text-anchor="middle" x="614" y="-22.8" font-family="Helvetica,sans-Serif" font-size="14.00">value = [79, 812, 103866]</text>
<text text-anchor="middle" x="614" y="-7.8" font-family="Helvetica,sans-Serif" font-size="14.00">class = GeneralMalware</text>
</g>
<!-- 4&#45;&gt;5 -->
<g id="edge5" class="edge">
<title>4&#45;&gt;5</title>
<path fill="none" stroke="black" d="M619.02,-103.73C618.41,-95.43 617.77,-86.67 617.16,-78.28"/>
<polygon fill="black" stroke="black" points="620.65,-78.02 616.43,-68.3 613.67,-78.53 620.65,-78.02"/>
</g>
<!-- 6 -->
<g id="node7" class="node">
<title>6</title>
<path fill="#e1d0f9" stroke="black" d="M956,-68C956,-68 746,-68 746,-68 740,-68 734,-62 734,-56 734,-56 734,-12 734,-12 734,-6 740,0 746,0 746,0 956,0 956,0 962,0 968,-6 968,-12 968,-12 968,-56 968,-56 968,-62 962,-68 956,-68"/>
<text text-anchor="middle" x="851" y="-52.8" font-family="Helvetica,sans-Serif" font-size="14.00">gini = 0.496</text>
<text text-anchor="middle" x="851" y="-37.8" font-family="Helvetica,sans-Serif" font-size="14.00">samples = 8885</text>
<text text-anchor="middle" x="851" y="-22.8" font-family="Helvetica,sans-Serif" font-size="14.00">value = [49.0, 3811.0, 5025.0]</text>
<text text-anchor="middle" x="851" y="-7.8" font-family="Helvetica,sans-Serif" font-size="14.00">class = GeneralMalware</text>
</g>
<!-- 4&#45;&gt;6 -->
<g id="edge6" class="edge">
<title>4&#45;&gt;6</title>
<path fill="none" stroke="black" d="M706.95,-103.88C728.46,-93.6 751.46,-82.6 772.63,-72.47"/>
<polygon fill="black" stroke="black" points="774.38,-75.51 781.9,-68.04 771.36,-69.2 774.38,-75.51"/>
</g>
</g>
</svg>
